<?xml version="1.0" standalone="no"?>
<!DOCTYPE svg PUBLIC "-//W3C//DTD SVG 20010904//EN"
 "http://www.w3.org/TR/2001/REC-SVG-20010904/DTD/svg10.dtd">
<svg version="1.0" xmlns="http://www.w3.org/2000/svg"
 width="512.000000pt" height="512.000000pt" viewBox="0 0 512.000000 512.000000"
 preserveAspectRatio="xMidYMid meet">
<metadata>
Created by potrace 1.16, written by Peter Selinger 2001-2019
</metadata>
<g transform="translate(0.000000,512.000000) scale(0.100000,-0.100000)"
fill="#AF0724" stroke="none">
<path d="M2305 5106 c-52 -23 -58 -49 -64 -297 -7 -281 4 -261 -186 -335 -151
-59 -219 -93 -320 -159 -170 -110 -312 -277 -384 -449 -117 -281 -119 -618 -6
-862 50 -110 109 -190 215 -295 172 -170 339 -266 766 -442 349 -144 444 -196
537 -296 73 -78 102 -148 102 -246 0 -71 -4 -89 -33 -147 -53 -108 -153 -180
-312 -225 -106 -29 -349 -25 -513 10 -174 37 -327 88 -478 158 -173 81 -214
79 -254 -18 -16 -38 -99 -321 -130 -443 -22 -84 -16 -152 16 -186 81 -87 368
-189 694 -249 172 -31 202 -41 217 -68 9 -15 15 -96 19 -237 6 -238 12 -264
72 -300 29 -18 52 -20 262 -20 342 0 334 -7 336 306 0 115 5 228 11 252 15 61
58 94 175 132 134 44 230 90 327 154 487 324 653 934 395 1449 -55 110 -122
200 -219 297 -160 160 -294 236 -771 439 -473 201 -599 305 -599 492 0 117 66
210 192 269 89 42 177 54 368 47 232 -8 390 -45 609 -142 109 -48 148 -54 183
-26 33 26 52 77 128 337 64 217 71 271 40 321 -37 62 -278 154 -520 200 -183
34 -239 52 -263 84 -17 23 -20 52 -26 228 -11 289 0 280 -336 280 -160 0 -228
-3 -250 -13z"/>
</g>
</svg>
