<?xml version="1.0" standalone="no"?>
<!DOCTYPE svg PUBLIC "-//W3C//DTD SVG 20010904//EN"
 "http://www.w3.org/TR/2001/REC-SVG-20010904/DTD/svg10.dtd">
<svg version="1.0" xmlns="http://www.w3.org/2000/svg"
 width="512.000000pt" height="512.000000pt" viewBox="0 0 512.000000 512.000000"
 preserveAspectRatio="xMidYMid meet">
<metadata>
Created by potrace 1.16, written by Peter Selinger 2001-2019
</metadata>
<g transform="translate(0.000000,512.000000) scale(0.100000,-0.100000)"
fill="#AF0724" stroke="none">
<path d="M2345 4954 c-215 -32 -399 -89 -580 -179 -177 -89 -296 -176 -450
-330 -154 -154 -241 -273 -330 -450 -125 -252 -174 -445 -182 -725 -4 -164 -2
-197 17 -290 89 -431 373 -1000 875 -1750 323 -484 719 -1016 783 -1053 43
-25 121 -25 164 0 60 35 506 634 797 1071 485 728 774 1310 861 1732 19 93 21
126 17 290 -4 135 -11 212 -27 285 -132 620 -577 1121 -1170 1319 -193 64
-280 78 -525 81 -121 2 -233 1 -250 -1z m426 -998 c179 -62 331 -218 390 -398
21 -63 24 -92 24 -208 -1 -128 -2 -139 -33 -215 -76 -190 -243 -339 -438 -390
-77 -20 -226 -20 -306 0 -227 59 -404 237 -463 465 -25 98 -17 261 18 360 117
328 478 501 808 386z"/>
</g>
</svg>
