<?xml version="1.0" standalone="no"?>
<!DOCTYPE svg PUBLIC "-//W3C//DTD SVG 20010904//EN"
 "http://www.w3.org/TR/2001/REC-SVG-20010904/DTD/svg10.dtd">
<svg version="1.0" xmlns="http://www.w3.org/2000/svg"
 width="512.000000pt" height="512.000000pt" viewBox="0 0 512.000000 512.000000"
 preserveAspectRatio="xMidYMid meet">
<metadata>
Created by potrace 1.16, written by Peter Selinger 2001-2019
</metadata>
<g transform="translate(0.000000,512.000000) scale(0.100000,-0.100000)"
fill="#AF0724" stroke="none">
<path d="M303 4340 c-134 -48 -237 -152 -284 -288 -18 -53 -19 -103 -19 -1492
0 -1397 1 -1438 19 -1493 47 -137 151 -241 289 -288 54 -18 115 -19 2252 -19
2137 0 2198 1 2252 19 138 47 242 151 289 288 18 55 19 96 19 1493 0 1397 -1
1438 -19 1493 -47 137 -151 241 -289 288 -54 18 -114 19 -2256 18 -2119 0
-2203 -1 -2253 -19z m3410 -1160 c-838 -834 -886 -880 -955 -914 -85 -42 -170
-56 -260 -44 -38 5 -92 22 -136 44 -69 34 -117 80 -955 914 l-882 879 2035 0
2035 0 -882 -879z m-2703 -44 l575 -576 -643 -643 -642 -642 0 1279 0 1278 68
-60 c37 -34 326 -320 642 -636z m3810 -583 l0 -1278 -642 643 -643 642 636
635 c350 349 639 635 642 635 4 0 7 -575 7 -1277z m-2910 -319 c247 -249 400
-326 650 -326 135 0 230 22 338 76 89 45 158 100 299 239 l112 110 98 -91 c54
-50 343 -336 643 -636 l545 -546 -2035 0 -2035 0 636 635 c350 349 641 635
646 635 4 0 51 -43 103 -96z"/>
</g>
</svg>
