<?xml version="1.0" standalone="no"?>
<!DOCTYPE svg PUBLIC "-//W3C//DTD SVG 20010904//EN"
 "http://www.w3.org/TR/2001/REC-SVG-20010904/DTD/svg10.dtd">
<svg version="1.0" xmlns="http://www.w3.org/2000/svg"
 width="512.000000pt" height="512.000000pt" viewBox="0 0 512.000000 512.000000"
 preserveAspectRatio="xMidYMid meet">
<metadata>
Created by potrace 1.16, written by Peter Selinger 2001-2019
</metadata>
<g transform="translate(0.000000,512.000000) scale(0.100000,-0.100000)"
fill="#AF0724" stroke="none">
<path d="M865 5105 c-113 -35 -142 -59 -446 -364 -280 -280 -299 -300 -337
-378 -22 -45 -49 -117 -59 -160 -24 -107 -25 -332 0 -468 127 -696 633 -1522
1407 -2296 782 -783 1614 -1297 2295 -1420 101 -18 145 -20 275 -16 173 6 233
18 350 74 70 34 97 58 376 337 263 263 305 309 333 366 75 154 77 318 7 466
-35 74 -54 95 -414 457 -207 208 -403 398 -435 422 -86 65 -152 88 -277 93
-122 5 -196 -15 -287 -75 -90 -59 -128 -111 -189 -253 -38 -87 -82 -147 -143
-193 -144 -110 -299 -135 -471 -77 -438 146 -954 621 -1174 1080 -54 114 -106
283 -106 344 2 157 125 339 277 407 158 72 181 85 234 138 116 116 165 297
124 456 -34 131 -54 155 -450 554 -435 439 -465 464 -607 505 -67 19 -224 20
-283 1z"/>
</g>
</svg>
