<?xml version="1.0" standalone="no"?>
<!DOCTYPE svg PUBLIC "-//W3C//DTD SVG 20010904//EN"
 "http://www.w3.org/TR/2001/REC-SVG-20010904/DTD/svg10.dtd">
<svg version="1.0" xmlns="http://www.w3.org/2000/svg"
 width="512.000000pt" height="512.000000pt" viewBox="0 0 512.000000 512.000000"
 preserveAspectRatio="xMidYMid meet">
<metadata>
Created by potrace 1.16, written by Peter Selinger 2001-2019
</metadata>
<g transform="translate(0.000000,512.000000) scale(0.100000,-0.100000)"
fill="#fff" stroke="none">
<path d="M2154 4390 c-265 -30 -518 -124 -739 -273 -119 -81 -331 -293 -412
-412 -210 -311 -308 -682 -275 -1042 15 -157 33 -246 78 -383 134 -401 427
-738 809 -925 550 -270 1210 -204 1690 168 l70 55 425 -423 c377 -375 429
-424 464 -431 81 -14 146 51 132 132 -7 35 -56 87 -431 464 l-423 425 55 70
c214 274 333 624 333 977 0 784 -555 1445 -1327 1583 -105 18 -350 27 -449 15z
m406 -237 c118 -19 272 -68 376 -121 397 -201 663 -555 750 -997 24 -123 24
-357 0 -485 -110 -573 -543 -1006 -1116 -1116 -128 -24 -362 -24 -485 0 -510
100 -913 450 -1070 930 -132 403 -71 841 166 1201 67 101 269 304 369 370 308
205 643 277 1010 218z"/>
</g>
</svg>
