<?xml version="1.0" standalone="no"?>
<!DOCTYPE svg PUBLIC "-//W3C//DTD SVG 20010904//EN"
 "http://www.w3.org/TR/2001/REC-SVG-20010904/DTD/svg10.dtd">
<svg version="1.0" xmlns="http://www.w3.org/2000/svg"
 width="512.000000pt" height="512.000000pt" viewBox="0 0 512.000000 512.000000"
 preserveAspectRatio="xMidYMid meet">
<metadata>
Created by potrace 1.16, written by Peter Selinger 2001-2019
</metadata>
<g transform="translate(0.000000,512.000000) scale(0.100000,-0.100000)"
fill="#AF0724" stroke="none">
<path d="M2350 5113 c-175 -28 -327 -80 -444 -150 -181 -108 -346 -272 -454
-450 -56 -92 -106 -220 -134 -338 -29 -125 -36 -375 -14 -501 64 -368 285
-680 618 -871 328 -188 765 -204 1124 -42 120 54 233 137 350 253 262 262 377
560 361 928 -15 327 -126 584 -354 815 -182 185 -409 304 -660 348 -79 14
-327 19 -393 8z"/>
<path d="M1410 2644 c-126 -19 -210 -44 -312 -95 -195 -96 -342 -255 -458
-494 -146 -301 -220 -670 -220 -1106 0 -264 19 -358 103 -524 31 -61 63 -102
132 -171 98 -99 183 -155 302 -197 165 -60 110 -58 1639 -55 l1399 3 85 26
c108 34 165 59 237 105 167 106 290 274 343 464 32 119 41 261 30 480 -50 980
-422 1532 -1055 1567 -136 7 -138 7 -371 -143 -180 -115 -305 -172 -471 -215
-125 -33 -349 -33 -473 -1 -177 46 -296 101 -476 218 -66 43 -147 93 -182 111
-58 30 -71 33 -145 32 -45 -1 -93 -3 -107 -5z"/>
</g>
</svg>
